<svg xmlns="http://www.w3.org/2000/svg" width="20" height="20" viewBox="0 0 20 20"><g transform="translate(-3396 -73)"><path d="M3406,93a10,10,0,1,1,10-10A10.011,10.011,0,0,1,3406,93Zm0-19a9,9,0,1,0,9,9A9.011,9.011,0,0,0,3406,74Z" fill="#5c4f8e"/><path d="M3410.779,79.715l-4.891,2.164a2.751,2.751,0,1,0,.667,1.509l1.622-.718.557,1.258a.275.275,0,0,0,.362.14l.5-.223a.274.274,0,0,0,.14-.363l-.556-1.257.5-.222.556,1.257a.277.277,0,0,0,.363.14l.5-.222a.275.275,0,0,0,.14-.363l-.556-1.258.754-.333a.276.276,0,0,0,.141-.363l-.445-1.006A.277.277,0,0,0,3410.779,79.715Zm-6.4,5.238a1.375,1.375,0,1,1,.7-1.813A1.379,1.379,0,0,1,3404.376,84.953Z" fill="#5c4f8e"/></g></svg>