<svg xmlns="http://www.w3.org/2000/svg" width="20" height="20" viewBox="0 0 20 20"><g transform="translate(-3237.166 -72.667)"><path d="M3247.166,92.667a10,10,0,1,1,10-10A10.011,10.011,0,0,1,3247.166,92.667Zm0-19a9,9,0,1,0,9,9A9.01,9.01,0,0,0,3247.166,73.667Z" fill="#5c4f8e"/><path d="M3249.771,75.517h-5.159a1.736,1.736,0,0,0-1.731,1.731V88.085a1.736,1.736,0,0,0,1.731,1.732h5.142a1.736,1.736,0,0,0,1.731-1.732V77.248A1.711,1.711,0,0,0,3249.771,75.517Zm-5.159,1.038h5.142a.7.7,0,0,1,.692.693v.485h-6.527v-.485A.7.7,0,0,1,3244.612,76.555Zm5.851,2.216v7.272h-6.544V78.771Zm-.692,10.007h-5.159a.7.7,0,0,1-.693-.693v-1h6.527v1A.67.67,0,0,1,3249.771,88.778Z" fill="#5c4f8e"/></g></svg>